:SAMPLES-PER-SECOND 30
:FRAME-RANGE 1-2091
:FULLY-SPECIFIED
:DEGREES
981
root  59.453 38.3624 51.3107 -179.409 -23.9247 178.084
RightUpLeg  -20.9302 0.629 -9.13777
RightLeg  64.129 -3.39079 -8.16564
RightFoot  1.50687 -1.56509 13.9291
RightToes  5.82063e-011 0 -3.6325e-017
Spine  8.47017 0.647449 -3.39745
Spine1  -1.74127 0.368416 -3.6262
HEad  10.8698 -9.29979 -3.24187
LeftShoulder1  1.01246 0.681116 -29.7864
LeftArm  10.4077 21.582 -29.3776
LeftForeArm  -0.608496 -15.6951 -10.8912
LeftHand  0.431035 -0.656539 -8.23958
RightShoulder  5.87409 12.1369 31.6218
RightArm  -15.8043 16.4101 3.95637
RightForeArm  16.4162 24.8112 4.4474
RightHand  -0.255802 2.79328 -3.8474
LeftUpLeg  -8.93467 5.29844 -10.2167
LeftLeg  20.4414 18.8674 3.34186
LeftFoot  -13.7555 0.20558 5.82418
LeftToes  -6.27584e-011 -2.25241e-010 2.80627e-011
982
root  59.0666 38.5445 50.4082 -179.846 -27.425 179.069
RightUpLeg  -23.1475 1.59279 -8.56442
RightLeg  58.1144 -5.35293 -9.64123
RightFoot  0.613482 -1.38928 13.254
RightToes  5.82063e-011 0 -3.6325e-017
Spine  8.42384 -0.02067 -3.12677
Spine1  -1.82283 -0.277625 -2.56794
HEad  10.8342 -9.39394 -2.82948
LeftShoulder1  1.0512 0.548566 -29.4856
LeftArm  12.5476 20.7267 -29.5457
LeftForeArm  -2.10674 -17.0963 -9.80938
LeftHand  0.415957 -0.819227 -7.61958
RightShoulder  5.50971 11.8015 30.0459
RightArm  -17.1637 16.9725 3.43751
RightForeArm  16.0567 26.1454 4.75885
RightHand  -0.213072 2.58555 -3.30985
LeftUpLeg  -6.06093 5.02018 -9.0775
LeftLeg  18.3409 15.7362 1.95878
LeftFoot  -14.1917 0.234991 6.00794
LeftToes  -6.27584e-011 -2.25241e-010 2.80627e-011
983
root  58.6716 38.6984 49.5339 179.792 -30.7713 179.866
RightUpLeg  -24.094 2.62466 -8.49335
RightLeg  48.8075 -7.67827 -9.61397
RightFoot  0.287839 -1.32407 12.9703
RightToes  5.82063e-011 0 -3.6325e-017
Spine  8.51086 -0.567042 -2.8513
Spine1  -2.0232 -0.782931 -1.51896
HEad  10.5509 -9.40909 -2.30758
LeftShoulder1  1.12284 0.340696 -29.4147
LeftArm  14.2507 19.6754 -29.3331
LeftForeArm  -3.27705 -18.3537 -8.75092
LeftHand  0.407833 -0.998617 -7.34457
RightShoulder  5.21928 11.3964 29.058
RightArm  -17.7866 17.1828 3.10741
RightForeArm  16.5055 27.5072 5.04016
RightHand  -0.209425 2.17767 -3.40006
LeftUpLeg  -3.309 4.92952 -8.09827
LeftLeg  16.2214 12.5437 0.958521
LeftFoot  -14.5373 0.253508 5.94696
LeftToes  -6.27584e-011 -2.25241e-010 2.80627e-011
984
root  58.2764 38.7982 48.67 179.853 -33.891 -179.63
RightUpLeg  -23.9454 3.93493 -9.01325
RightLeg  36.2591 -9.34115 -7.52817
RightFoot  0.828237 -1.42825 13.3951
RightToes  5.82063e-011 0 -3.6325e-017
Spine  8.20236 -1.08468 -2.70015
Spine1  -1.99996 -1.24497 -0.620555
HEad  10.1849 -9.105 -1.80422
LeftShoulder1  1.16561 0.199123 -29.1863
LeftArm  15.3212 18.7322 -29.222
LeftForeArm  -4.07705 -19.4695 -7.77027
LeftHand  0.395515 -1.06602 -7.0385
RightShoulder  5.10986 11.1308 28.9456
RightArm  -18.2124 17.1499 2.91831
RightForeArm  17.0555 28.9109 5.3333
RightHand  -0.207435 2.1134 -3.39328
LeftUpLeg  -1.11999 4.90216 -7.23193
LeftLeg  14.5203 9.30352 0.133768
LeftFoot  -14.9977 0.27835 5.88903
LeftToes  -6.27584e-011 -2.25241e-010 2.80627e-011
985
root  57.8464 38.8088 47.784 179.919 -36.6784 -179.362
RightUpLeg  -22.5898 6.21727 -9.92504
RightLeg  22.2418 -9.86028 -4.60756
RightFoot  1.44791 -1.62726 14.5366
RightToes  5.82063e-011 0 -3.6325e-017
Spine  7.96636 -1.45973 -2.34616
Spine1  -1.85293 -1.54478 -0.109253
HEad  9.77884 -8.70118 -1.35916
LeftShoulder1  1.17227 0.151769 -28.8811
LeftArm  15.8459 17.7742 -29.2322
LeftForeArm  -4.32387 -20.2667 -7.06705
LeftHand  0.36986 -1.12652 -6.50861
RightShoulder  5.05947 10.8412 29.3106
RightArm  -18.0223 16.8656 3.11066
RightForeArm  18.1626 30.1909 5.57398
RightHand  -0.22239 1.95074 -3.69215
LeftUpLeg  0.840883 5.06534 -6.40011
LeftLeg  13.5921 6.35488 -0.512242
LeftFoot  -15.8843 0.324812 5.77531
LeftToes  -6.27584e-011 -2.25241e-010 2.80627e-011
